<svg id="svg1" width="135" height="111" viewBox="0 0 135 111" fill="none" xmlns="http://www.w3.org/2000/svg">
               <path d="M77.7005 97.382H77.7486C77.7486 97.4301 77.7005 97.4301 77.7005 97.382Z" fill="#FF5301"/>
               <path d="M134.465 56.0683C133.277 52.6928 130.282 50.1731 126.716 49.6502C123.959 49.2698 121.534 49.6502 118.872 50.078C114.117 50.7912 109.316 50.9338 104.562 51.7895C99.9976 52.5978 95.909 54.7847 91.7728 56.7339C87.2088 58.6831 82.4071 59.4438 77.5103 60.3946C74.9906 60.87 72.4709 61.488 69.9988 62.3438C67.5742 63.1995 65.1971 64.293 62.8675 65.3865C57.9707 67.6209 53.0264 69.2849 47.8919 70.8538C43.423 72.2325 39.0491 73.9439 34.6278 75.4177C31.9654 76.2735 29.3031 77.1768 26.6883 78.2702C23.9309 79.4588 21.221 80.7899 18.5112 82.0736C17.0849 82.6916 15.6111 83.2621 14.0898 83.6424C14.0898 83.5949 14.0898 83.5949 14.1373 83.5474C14.1849 83.4523 14.2324 83.167 14.3275 82.9293C14.4226 82.6916 14.5652 82.3588 14.6603 82.2162C14.7554 82.026 14.898 81.8359 14.9931 81.5982C14.9931 81.5506 15.0406 81.5506 15.0406 81.5506C15.2308 81.3129 15.4685 81.0752 15.4685 81.0277C16.039 80.3621 16.657 79.7916 17.2751 79.2211C19.5095 77.462 21.9342 76.0358 24.3588 74.5145C26.926 72.898 29.5408 71.3292 32.2507 69.998C38.2409 67.3832 44.7066 65.8619 50.9346 63.9602C57.7806 61.9159 64.6741 59.7765 71.6627 58.3027C78.6038 56.829 85.3547 54.8798 92.1056 52.6928C95.2909 51.6469 98.4762 50.5535 101.519 49.1748C104.989 47.6059 108.317 45.8468 111.693 44.1829C114.26 42.8993 116.827 41.6632 118.776 39.5238C121.344 36.6713 122.342 32.6778 121.201 29.0646C121.011 28.4466 120.773 27.8761 120.44 27.3056C120.345 27.1154 120.25 26.9728 120.155 26.7826C118.016 23.3121 114.213 22.1236 110.362 21.8383C108.08 21.6957 105.845 22.0285 103.563 22.076C100.521 22.1236 97.4779 21.7908 94.4827 21.7908C90.822 21.7432 87.3039 22.3613 83.7383 23.217C76.9399 24.8334 70.0938 26.7351 63.6282 29.4925C56.5445 32.5352 49.2231 35.15 41.9492 37.7172C38.4311 38.9533 34.913 40.1894 31.4425 41.3779C29.0179 42.2337 26.5457 43.0419 24.0735 43.6124C24.1211 43.5648 24.1686 43.4698 24.2162 43.4222C26.1654 41.1402 28.2572 38.8582 30.4917 36.8139C33.0114 34.8647 35.8639 33.486 38.6213 32.0122C41.5213 30.4909 44.2787 28.7318 47.2263 27.2581C49.4608 26.2597 51.6952 25.4039 54.0248 24.6433C57.3052 23.5023 59.6822 19.794 58.4462 16.2759C57.2576 12.948 53.6444 10.6185 50.0788 11.8546C45.0394 13.6136 40.0951 15.6579 35.4835 18.4153C31.6327 20.6973 27.3539 22.5039 23.7407 25.1662C19.6997 28.1138 16.1341 32.0122 13.0439 35.9106C10.5242 39.0008 7.7192 42.7566 7.52903 46.8452C7.48149 47.6534 7.52904 48.4141 7.71921 49.2223C7.81429 49.5551 7.86182 49.8879 8.00444 50.2207C11.4274 60.3946 24.6916 57.5421 32.2982 55.1175C41.3787 52.2174 50.2214 48.6518 59.2068 45.5616C64.5315 43.755 69.5234 41.0451 74.9431 39.4763C79.8874 38.0025 84.9268 36.3385 90.0138 35.3877C93.1991 34.9598 96.3844 35.15 99.6172 35.2926C98.7139 35.768 97.8106 36.1959 96.9073 36.6238C92.5335 38.573 87.9695 39.9517 83.4055 41.3779C78.4612 42.8993 73.5169 44.278 68.4774 45.3239C58.5412 47.4157 48.7952 50.601 39.0967 53.501C34.0097 55.0224 29.0179 56.6388 24.2637 59.0159C20.3653 60.9651 16.7046 63.3422 13.0439 65.7192C9.09792 68.2865 5.48474 71.3767 3.01257 75.4177C1.87157 77.2719 1.34863 79.4112 0.683047 81.5031C-0.077619 83.9752 -0.267786 86.7802 0.445339 89.2524C0.587964 89.6803 0.730572 90.0606 0.873197 90.4884C1.06336 90.9639 1.30108 91.3917 1.53879 91.7721C3.96342 95.718 8.86021 97.4295 13.5193 97.0492C19.3194 96.5738 24.2162 93.8639 29.3507 91.4393H29.3982C33.5819 89.5852 37.9557 88.3015 42.2344 86.8277C44.3263 86.1146 46.4181 85.2589 48.5099 84.5457C51.0296 83.69 53.5494 82.9769 56.1166 82.1687C61.0609 80.5998 65.6725 78.4604 70.3791 76.4161C73.3267 75.1325 76.3218 74.2767 79.412 73.5636C74.5152 75.7505 69.6185 78.3178 66.1479 82.4064C64.0561 84.8785 62.3446 87.8737 61.8692 91.1065C61.2987 94.9574 61.9642 98.4754 63.8184 101.898C67.2414 108.269 75.7038 112.785 82.7875 110.028C84.4514 109.362 85.8777 108.412 86.7334 106.795C87.4941 105.369 87.7794 103.277 87.2089 101.708C86.0679 98.523 82.3596 95.9082 78.8415 97.2869C78.6513 97.382 78.4612 97.4295 78.2235 97.4771H78.1759C78.0809 97.4295 77.9382 97.4295 77.8431 97.382C77.9382 97.4295 78.0808 97.4295 78.1284 97.4771C78.0808 97.4771 77.9858 97.4771 77.8907 97.4771C77.8431 97.4771 77.7956 97.4295 77.7481 97.4295C77.7005 97.382 77.6055 97.382 77.5579 97.3345C77.3677 97.2394 77.1776 97.1443 76.9874 97.0492C77.0825 97.0967 77.13 97.1918 77.2251 97.2869C77.13 97.1918 76.9874 97.0967 76.8923 97.0017C76.9399 97.0017 76.9399 97.0492 76.9874 97.0492C76.5595 96.6689 76.3694 96.5262 76.3218 96.4787C76.4169 96.5738 76.512 96.6689 76.6071 96.7164C76.7022 96.8115 76.7972 96.859 76.8923 96.9541C76.5595 96.7639 76.2267 96.4311 76.3218 96.4787C76.1792 96.3361 76.0366 96.1935 75.894 96.0508C75.6562 95.718 75.4185 95.3377 75.2284 94.9574C75.1333 94.7197 75.0857 94.482 74.9906 94.2443C74.9906 94.1016 74.9906 93.9115 74.9906 93.7688C75.0382 93.4836 75.1333 93.1508 75.2284 92.8655C75.2759 92.7704 75.3234 92.6278 75.371 92.5327C75.5136 92.295 75.6562 92.0573 75.7989 91.8196C75.989 91.5819 76.1792 91.3442 76.4169 91.1065C76.7972 90.7262 77.1776 90.3458 77.5579 89.9655C79.8875 88.2065 82.4547 86.8753 85.0695 85.6392C89.3007 83.7375 93.627 82.0736 98.191 81.0277C103.088 79.8867 107.794 78.2702 112.406 76.3686C114.593 75.4653 116.827 74.8472 119.062 74.2292C119.965 73.9915 120.868 73.7063 121.772 73.4685C122.722 73.1833 123.626 72.8505 124.529 72.5177C125.385 72.1849 126.288 71.8046 127.144 71.3767C129.854 70.0931 132.136 68.0963 133.467 65.3865C134.941 62.5815 135.511 59.111 134.465 56.0683ZM14.8505 81.8834C14.7078 82.1211 14.5652 82.3113 14.5652 82.3113C14.5177 82.2637 14.6603 82.0736 14.8505 81.8834ZM78.3661 97.6197C78.4136 97.6197 78.4136 97.6197 78.4612 97.6197C78.5087 97.6672 78.4612 97.6672 78.3186 97.6197C78.3186 97.6672 78.3186 97.6197 78.3661 97.6197ZM75.1333 93.4836C75.1333 93.436 75.1808 93.1983 75.2759 92.9606C75.2283 93.2934 75.1808 93.436 75.1333 93.4836ZM11.9504 83.8801C11.8553 83.8326 11.7603 83.7851 11.7127 83.7851C11.8078 83.8326 11.8553 83.8326 11.9504 83.8801Z" fill="#FF5301"/>
               <path d="M121.249 29.1597C115.781 26.117 102.802 27.1629 83.4055 32.345C65.5298 37.0991 45.4197 44.4205 31.6802 49.7452C27.2588 51.4567 23.3604 52.5026 19.9849 52.8354C15.1357 53.3584 11.3799 52.5026 8.71753 50.2682C8.38474 49.9829 8.09951 49.6977 7.81426 49.3649C7.62409 48.5567 7.57654 47.7485 7.62408 46.9878C8.14704 47.8435 8.7651 48.6518 9.5733 49.3173C13.6619 52.7879 20.9358 52.5502 31.2048 48.5567C44.9443 43.232 65.1019 35.9106 83.0727 31.1089C93.1991 28.4466 101.614 26.8301 108.08 26.3547C113.499 25.9744 117.588 26.3072 120.488 27.4482C120.821 27.9711 121.058 28.5892 121.249 29.1597Z" fill="#FF9867"/>
               <path d="M124.624 72.5653C123.721 72.8981 122.818 73.2309 121.867 73.5162C126.431 69.3325 128.475 64.6259 126.811 61.4881C125.052 58.2553 119.632 57.0192 111.503 57.97C101.186 59.2061 87.304 63.7701 70.2365 71.6145C39.0016 85.9245 20.0801 90.441 9.38319 91.582C8.81269 91.6295 8.24219 91.6771 7.71923 91.7246C5.38969 91.9148 3.39293 91.9623 1.68143 91.9148C1.44373 91.4869 1.20604 91.059 1.01587 90.6312C2.91754 90.7262 5.19951 90.7263 8.00447 90.441C18.2735 89.5377 37.2901 85.3065 69.7611 70.4259C86.9236 62.534 100.948 57.9225 111.408 56.6864C120.108 55.6405 125.955 57.1143 128 60.8701C129.664 64.1029 128.285 68.4767 124.624 72.5653Z" fill="#FF9867"/>
               <path d="M91.0122 96.3837C90.822 96.3837 90.6319 96.3362 90.4892 96.1935C88.7777 94.5771 88.4925 92.2476 88.4925 92.1525C88.445 91.8197 88.7302 91.4869 89.063 91.4394C89.3958 91.3918 89.7286 91.6295 89.7761 92.0099C89.7761 92.0099 90.0138 93.9591 91.3925 95.2427C91.6302 95.4804 91.6778 95.9083 91.3925 96.146C91.2975 96.3362 91.1548 96.3837 91.0122 96.3837Z" fill="orange"/>
               <path d="M98.6189 97.2395C98.3812 97.287 98.1435 97.1444 98.0008 96.9542C96.432 94.482 95.4336 90.0607 95.3861 89.8705C95.291 89.5377 95.5287 89.2049 95.8615 89.1098C96.1943 89.0147 96.527 89.2524 96.6221 89.5852C96.6221 89.6328 97.6205 94.0066 99.0943 96.2411C99.2845 96.5263 99.1894 96.9067 98.9041 97.0968C98.809 97.1919 98.714 97.2395 98.6189 97.2395Z" fill="orange"/>
               <path d="M97.5255 103.372C97.2878 103.42 97.05 103.277 96.9074 103.087L95.0533 100.33C94.8631 100.044 94.9582 99.664 95.2434 99.4263C95.5287 99.2362 95.909 99.3313 96.1467 99.6165L98.0009 102.374C98.191 102.659 98.0959 103.04 97.8107 103.277C97.7156 103.325 97.6205 103.372 97.5255 103.372Z" fill="orange"/>
               <path d="M103.848 92.0573C103.658 92.0573 103.516 92.0097 103.373 91.9146C102.089 90.7736 101.804 88.349 101.757 88.0638C101.709 87.731 101.994 87.3982 102.327 87.3507C102.66 87.3031 102.993 87.5883 103.04 87.9211C103.088 88.5392 103.468 90.2507 104.229 90.9638C104.466 91.2015 104.514 91.5819 104.276 91.8671C104.134 91.9622 103.991 92.0573 103.848 92.0573Z" fill="orange"/>
               <path d="M104.799 101.09C104.562 101.138 104.324 100.995 104.181 100.805C103.516 99.7591 102.802 97.5246 102.755 97.4295C102.66 97.0967 102.802 96.7164 103.135 96.6213C103.468 96.5262 103.848 96.6689 103.943 97.0017C103.943 97.0017 104.704 99.1886 105.275 100.092C105.465 100.377 105.37 100.805 105.084 100.948C104.989 101.043 104.894 101.09 104.799 101.09Z" fill="orange"/>
               <path d="M104.514 107.841C104.324 107.841 104.086 107.794 103.943 107.603C103.516 107.08 102.47 106.272 102.089 105.987C101.804 105.797 101.757 105.369 101.947 105.084C102.137 104.798 102.565 104.751 102.85 104.941C102.898 104.989 104.324 105.987 104.942 106.748C105.18 107.033 105.132 107.413 104.847 107.651C104.752 107.794 104.657 107.841 104.514 107.841Z" fill="orange"/>
               <path d="M76.5595 22.0285C76.2268 22.076 75.894 21.8383 75.8464 21.458C75.7989 21.0777 75.8464 16.7038 76.1792 15.6579C76.2743 15.3251 76.6546 15.135 76.9874 15.23C77.3202 15.3251 77.5104 15.7055 77.4153 16.0382C77.1776 16.8465 77.1301 20.935 77.1301 21.3154C77.1301 21.6482 76.8923 21.981 76.5595 22.0285Z" fill="orange"/>
               <path d="M71.9955 16.371C71.948 16.371 71.9005 16.371 71.8529 16.371C71.5201 16.3235 71.2349 15.9907 71.2824 15.6579C71.425 14.612 72.0906 9.38241 72.6136 8.28895C72.7562 7.95616 73.1365 7.86107 73.4693 8.00369C73.8021 8.14632 73.8972 8.52665 73.7546 8.85944C73.4218 9.57256 72.8513 13.5185 72.5661 15.8481C72.5185 16.1333 72.2808 16.3235 71.9955 16.371Z" fill="orange"/>
               <path d="M76.2743 11.4266C76.1792 11.4266 76.1317 11.4266 76.0366 11.4266C75.7038 11.3316 75.5136 10.9988 75.6087 10.6184L76.6071 7.05281C76.7022 6.72002 77.0349 6.52986 77.4153 6.62494C77.7481 6.72002 77.9383 7.05281 77.8432 7.43314L76.8448 10.9988C76.7497 11.2365 76.5595 11.3791 76.2743 11.4266Z" fill="orange"/>
               <path d="M71.1874 23.3596C70.8546 23.4071 70.5218 23.1219 70.4743 22.7891L70.189 20.0317C70.1415 19.6989 70.4267 19.3661 70.7595 19.3186C71.0923 19.271 71.4251 19.5563 71.4726 19.8891L71.7579 22.6465C71.8055 23.0268 71.5677 23.3121 71.1874 23.3596Z" fill="orange"/>
               <path d="M80.8858 20.8875C80.6006 20.935 80.3153 20.7448 80.2202 20.4596C80.0301 20.0317 79.2694 17.7973 79.8875 16.6563C80.0776 16.371 80.4579 16.2284 80.7432 16.4186C81.0284 16.6087 81.1711 16.9891 80.9809 17.2743C80.7432 17.7022 80.9809 19.0333 81.3613 20.0317C81.5039 20.3645 81.3137 20.7448 80.9809 20.8399C81.0284 20.8875 80.9334 20.8875 80.8858 20.8875Z" fill="orange"/>
               <path d="M80.6957 11.9021C80.6482 11.9021 80.5531 11.9021 80.5055 11.9021C80.1727 11.8071 79.935 11.4743 80.0301 11.1415L80.6006 8.33651C80.6957 8.00372 81.0285 7.76601 81.3613 7.86109C81.6941 7.95618 81.9318 8.28896 81.8367 8.62175L81.2662 11.4267C81.1711 11.6644 80.9809 11.8546 80.6957 11.9021Z" fill="orange"/>
               <path d="M79.7924 3.77244C79.7448 3.77244 79.6498 3.77244 79.6022 3.77244C79.2694 3.7249 79.0317 3.3921 79.0792 3.01177C79.2219 2.34619 79.5547 0.777308 79.7448 0.349433C79.8875 0.0166419 80.2678 -0.0784444 80.6006 0.0641806C80.9334 0.206806 81.0285 0.587148 80.8858 0.919939C80.7908 1.11011 80.5055 2.29864 80.3153 3.24948C80.3153 3.53473 80.0776 3.7249 79.7924 3.77244Z" fill="orange"/>
               </svg> 